# xmcd
#
# Track frame offsets:
#	150
#	36873
#	42096
#	60519
#	91917
#	106290
#	131388
#	142761
#	167409
#	195282
#	220755
#	235878
#	245376
#	260799
#	263922
#	272220
#
# Disc length: 3785 seconds
#
# Revision: 0
# Processed by: cddbd v1.5.2PL0 Copyright (c) Steve Scherf et al.
# Submitted via: audiograbber 1.83.01
#
DISCID=d60ec710
DTITLE=ливакгс сицамидгс (BY ALANTALON) - SABBATH LIFT
DYEAR=2006
DGENRE=Jazz
TTITLE0=йуяиайос цйоубемтас - йаи г сиыпг вяеиафетаи
TTITLE1=ливакгс сицамидгс - петяа
TTITLE2=GAS and циаммгс оийомолоу - ои дидулои
TTITLE3=стекиос йакжас SONAMA - жикеяглос
TTITLE4=акйимоос иыаммидгс ливакгс сицамидгс - та споуяцитайиа
TTITLE5=акйимоос иыаммидгс екемг капидайг ливакгс сицамидгс - атаяан йаи таяана
TTITLE5=йо
TTITLE6=ливакгс сицамидгс - тфитсийас FOR EVER (ояцамийо)
TTITLE7=CHARLOTTE BABBING вояос - окои ста йаябоума
TTITLE8=мийос йоулаяиас вояос - г хессакомийг амеу дидасйакоу
TTITLE9=ливакгс сицамидгс - акйая (ояцамийо)
TTITLE10=MEENA SERENDIB йыстас хеодыяоу (ROUSILVO) - диацымислос олояжиас
TTITLE11=ливакгс сицамидгс - деилос йаи жобос (ояцамийо)
TTITLE12=стекиос йекидгс - FUTURO MARAVILLOSO
TTITLE13=ливакгс сицамидгс - MYRGH JOY (ояцамийо)
TTITLE14=ливакгс сицамидгс - THEO, DIMOS, MARA (ояцамийо)
TTITLE15=дглос дглгтяиадгс ливакгс сицамидгс - SABBATH LIFT
EXTD=
EXTT0=
EXTT1=
EXTT2=
EXTT3=
EXTT4=
EXTT5=
EXTT6=
EXTT7=
EXTT8=
EXTT9=
EXTT10=
EXTT11=
EXTT12=
EXTT13=
EXTT14=
EXTT15=
PLAYORDER=
